/* XPM */
static char * coin16_xpm[] = {
"16 16 178 2",
"  	c None",
". 	c #D5BA78",
"+ 	c #CAAE6C",
"@ 	c #D1B474",
"# 	c #CDAF6A",
"$ 	c #D2B779",
"% 	c #DEC794",
"& 	c #E2CC99",
"* 	c #E6D09D",
"= 	c #E3CB94",
"- 	c #DCC284",
"; 	c #D2B573",
"> 	c #CFB06A",
", 	c #DBC28D",
"' 	c #E9D4A5",
") 	c #E3CD99",
"! 	c #E2CB93",
"~ 	c #E0C88D",
"{ 	c #DCC385",
"] 	c #D8BB77",
"^ 	c #D4B56D",
"/ 	c #D2B369",
"( 	c #CCAC61",
"_ 	c #DAC28B",
": 	c #E6D1A3",
"< 	c #E6D19F",
"[ 	c #E3CA94",
"} 	c #E2CA91",
"| 	c #DFC587",
"1 	c #DEC283",
"2 	c #D9BB76",
"3 	c #D3B369",
"4 	c #CCAA57",
"5 	c #CCA856",
"6 	c #C7A455",
"7 	c #D6BB7D",
"8 	c #E1CC98",
"9 	c #E3CE99",
"0 	c #E2CA93",
"a 	c #E1C88F",
"b 	c #D8BB78",
"c 	c #D8BC78",
"d 	c #D9BC7A",
"e 	c #CFAD5F",
"f 	c #C8A34F",
"g 	c #C29D48",
"h 	c #C59F4B",
"i 	c #C09E50",
"j 	c #DBC38D",
"k 	c #E2CB96",
"l 	c #D9BE7D",
"m 	c #DEC284",
"n 	c #D7BA76",
"o 	c #DCC07E",
"p 	c #D9BB77",
"q 	c #D9BC7B",
"r 	c #D3B46D",
"s 	c #C9A655",
"t 	c #CDAE64",
"u 	c #B89340",
"v 	c #B39043",
"w 	c #CEB06B",
"x 	c #DCC489",
"y 	c #DFC78E",
"z 	c #DDC283",
"A 	c #DDC181",
"B 	c #DCBF80",
"C 	c #D9BA75",
"D 	c #DDC180",
"E 	c #D3B46C",
"F 	c #D2B36D",
"G 	c #D1B26B",
"H 	c #DCBF7F",
"I 	c #B59242",
"J 	c #AA873B",
"K 	c #C3A45D",
"L 	c #D0B472",
"M 	c #DFC586",
"N 	c #D5B872",
"O 	c #D2B36A",
"P 	c #D9BC77",
"Q 	c #D5B772",
"R 	c #D4B673",
"S 	c #D7BA78",
"T 	c #DEC385",
"U 	c #C8A75E",
"V 	c #C3A259",
"W 	c #AD8A40",
"X 	c #A18037",
"Y 	c #B1924D",
"Z 	c #C7A963",
"` 	c #DCBF7D",
" .	c #D8BA74",
"..	c #D5B66D",
"+.	c #D1AF5F",
"@.	c #CDAA56",
"#.	c #DABE7C",
"$.	c #DBBF7E",
"%.	c #C7A65D",
"&.	c #B18D3C",
"*.	c #AC8A3C",
"=.	c #A6843A",
"-.	c #A17F37",
";.	c #957530",
">.	c #BA9D59",
",.	c #D0B168",
"'.	c #D1B36E",
").	c #D4B368",
"!.	c #CDA957",
"~.	c #D3B268",
"{.	c #C4A357",
"].	c #C3A35A",
"^.	c #E0C484",
"/.	c #C2A25A",
"(.	c #A88741",
"_.	c #9F7F39",
":.	c #907030",
"<.	c #907234",
"[.	c #B59853",
"}.	c #CCAB60",
"|.	c #CEAC5E",
"1.	c #D3B36A",
"2.	c #DDC182",
"3.	c #CBAB61",
"4.	c #B5913F",
"5.	c #B4903F",
"6.	c #AE8A3D",
"7.	c #A78439",
"8.	c #C5A662",
"9.	c #A78947",
"0.	c #896C2E",
"a.	c #896C31",
"b.	c #C9A85C",
"c.	c #C8A24D",
"d.	c #C19B43",
"e.	c #E1C68A",
"f.	c #B38E3A",
"g.	c #AF8B3D",
"h.	c #A38139",
"i.	c #9D7D37",
"j.	c #967737",
"k.	c #D1B270",
"l.	c #836629",
"m.	c #7E6129",
"n.	c #B49655",
"o.	c #C3A04F",
"p.	c #AF8B39",
"q.	c #AF8C3E",
"r.	c #A7843A",
"s.	c #A18038",
"t.	c #9C7C37",
"u.	c #977735",
"v.	c #917232",
"w.	c #83662A",
"x.	c #7D6128",
"y.	c #957A3D",
"z.	c #BA974A",
"A.	c #A68438",
"B.	c #A48239",
"C.	c #9D7C35",
"D.	c #997935",
"E.	c #927333",
"F.	c #8B6E2F",
"G.	c #87692D",
"H.	c #81662E",
"I.	c #947A3F",
"J.	c #BE9E56",
"K.	c #A07F38",
"L.	c #9C7C3A",
"M.	c #896C2C",
"N.	c #85682C",
"O.	c #856930",
"P.	c #876C33",
"Q.	c #A78B4E",
"R.	c #BA9C56",
"S.	c #BB9E5E",
"T.	c #B19555",
"U.	c #BE9F5D",
"            . + @ #             ",
"        $ % & * = - ; >         ",
"      , ' ) ! ~ { ] ^ / (       ",
"    _ : < [ } | 1 2 3 4 5 6     ",
"  7 8 9 0 a b c b d e f g h i   ",
"  j k a l m n o p q r s t u v   ",
"w x y z A B C D o E F G H I J K ",
"L M H N O b P Q R S T U V W X Y ",
"Z `  ...+.@.6 #.$.%.&.*.=.-.;.>.",
",.'./ ).!.~.m {.].^./.(._.:.<.[.",
"  }.|.1.2.3.4.5.6.7.8.^.9.0.a.  ",
"  b.c.d.e.f.g.J h.i.j.k.l.m.n.  ",
"    o.4.p.q.r.s.t.u.v.w.x.y.    ",
"      z.A.B.C.D.E.F.G.H.I.      ",
"        J.K.L.M.N.O.P.Q.        ",
"            R.S.T.U.            "};
