/* XPM */
static char * coin32_xpm[] = {
"32 32 592 2",
"  	c None",
". 	c #D8B76B",
"+ 	c #D7B86E",
"@ 	c #CCAD66",
"# 	c #D5B977",
"$ 	c #D4B97A",
"% 	c #C9AE71",
"& 	c #C8AE71",
"* 	c #C7AB6F",
"= 	c #D8BE83",
"- 	c #CCAF6D",
"; 	c #CFB16A",
"> 	c #CBAC63",
", 	c #D3B366",
"' 	c #D3B775",
") 	c #C5AA6E",
"! 	c #E1CA98",
"~ 	c #E1C996",
"{ 	c #DFC996",
"] 	c #E6D09D",
"^ 	c #E7D19F",
"/ 	c #E6D09B",
"( 	c #DFC78F",
"_ 	c #DFC689",
": 	c #D7BC7F",
"< 	c #D3B778",
"[ 	c #C2A460",
"} 	c #D1B26A",
"| 	c #D3B265",
"1 	c #CFB069",
"2 	c #CFB67E",
"3 	c #DAC28D",
"4 	c #ECD8A9",
"5 	c #E3CD98",
"6 	c #E3CC97",
"7 	c #E2CA94",
"8 	c #E2CB96",
"9 	c #DEC48A",
"0 	c #DBC182",
"a 	c #DBBF7F",
"b 	c #DABD7A",
"c 	c #DBBE7A",
"d 	c #CCAE69",
"e 	c #CFB16E",
"f 	c #CFAF61",
"g 	c #D2B674",
"h 	c #D8C08C",
"i 	c #E9D5A6",
"j 	c #E6D09F",
"k 	c #E3CE9A",
"l 	c #E3CC96",
"m 	c #E2CC95",
"n 	c #E1CA93",
"o 	c #E1C98F",
"p 	c #E0C78D",
"q 	c #DEC58B",
"r 	c #DBC183",
"s 	c #D8BB79",
"t 	c #D8BB78",
"u 	c #D6B872",
"v 	c #D5B770",
"w 	c #D4B66D",
"x 	c #CFB067",
"y 	c #CBAC67",
"z 	c #CFAD5F",
"A 	c #D1B677",
"B 	c #DAC28E",
"C 	c #EAD6A9",
"D 	c #E8D3A3",
"E 	c #E6D19F",
"F 	c #E5D09D",
"G 	c #E3CD99",
"H 	c #E2CC94",
"I 	c #E2CA92",
"J 	c #E2C990",
"K 	c #DFC68B",
"L 	c #DEC486",
"M 	c #DCC283",
"N 	c #D6B974",
"O 	c #D4B56D",
"P 	c #D4B46A",
"Q 	c #D3B368",
"R 	c #D0AF64",
"S 	c #D1AF61",
"T 	c #C8A85E",
"U 	c #CEAC5C",
"V 	c #CFB16D",
"W 	c #DBC591",
"X 	c #E9D4A7",
"Y 	c #E5D0A1",
"Z 	c #E7D2A1",
"` 	c #E6D2A0",
" .	c #E5CF9D",
"..	c #E3CB95",
"+.	c #E1CA90",
"@.	c #E2CA91",
"#.	c #E3CB93",
"$.	c #E1C78D",
"%.	c #DFC588",
"&.	c #DEC385",
"*.	c #D9BC79",
"=.	c #D6B66F",
"-.	c #D5B76F",
";.	c #D3B268",
">.	c #CFAD5D",
",.	c #CEAB5A",
"'.	c #CDAA5A",
").	c #C9A75A",
"!.	c #D0B062",
"~.	c #D1B36E",
"{.	c #D9C18D",
"].	c #E4CF9D",
"^.	c #E4CFA0",
"/.	c #E5D1A1",
"(.	c #E5CE99",
"_.	c #E2C992",
":.	c #E1C88E",
"<.	c #DFC487",
"[.	c #DCC07E",
"}.	c #DCC17F",
"|.	c #DDC180",
"1.	c #DCC07F",
"2.	c #DEC283",
"3.	c #D7B871",
"4.	c #D4B369",
"5.	c #D0AE61",
"6.	c #CDAA57",
"7.	c #C9A653",
"8.	c #CAA554",
"9.	c #C8A350",
"0.	c #C8A34E",
"a.	c #BE9A4C",
"b.	c #D2B266",
"c.	c #D4B469",
"d.	c #DCC48E",
"e.	c #DBC490",
"f.	c #E4CF9B",
"g.	c #E5CD99",
"h.	c #E3CC95",
"i.	c #E4CC96",
"j.	c #DCC080",
"k.	c #DEC281",
"l.	c #DDC181",
"m.	c #D9BD7C",
"n.	c #DEC284",
"o.	c #D1B063",
"p.	c #CBA856",
"q.	c #CAA653",
"r.	c #C7A24E",
"s.	c #C5A04C",
"t.	c #C39D4A",
"u.	c #C59F4C",
"v.	c #C8A451",
"w.	c #B89442",
"x.	c #CFAF64",
"y.	c #D1B470",
"z.	c #D8BF89",
"A.	c #E4CE9A",
"B.	c #E2CD99",
"C.	c #E1C990",
"D.	c #DFC68A",
"E.	c #E1C88D",
"F.	c #DFC383",
"G.	c #CBAD66",
"H.	c #D8BA74",
"I.	c #D8BB77",
"J.	c #DABD7D",
"K.	c #CDAD63",
"L.	c #D0AF61",
"M.	c #DABD7B",
"N.	c #C8A450",
"O.	c #C5A04A",
"P.	c #C49F4A",
"Q.	c #C19C47",
"R.	c #C29C47",
"S.	c #BF9944",
"T.	c #BA984C",
"U.	c #C8A657",
"V.	c #CEB479",
"W.	c #DFC894",
"X.	c #E2CB97",
"Y.	c #E5CF9B",
"Z.	c #E2C98F",
"`.	c #DABD7C",
" +	c #DFC688",
".+	c #DABC7A",
"++	c #D2B46B",
"@+	c #D2B163",
"#+	c #E0C68B",
"$+	c #D1AF5F",
"%+	c #DFC384",
"&+	c #C8A453",
"*+	c #C7A24D",
"=+	c #C5A04D",
"-+	c #CFAF68",
";+	c #BD9842",
">+	c #BC9742",
",+	c #B89440",
"'+	c #B7923F",
")+	c #BB9B51",
"!+	c #CAAB63",
"~+	c #DAC28B",
"{+	c #E2CB95",
"]+	c #E1CA94",
"^+	c #DCC081",
"/+	c #D1B471",
"(+	c #E0C687",
"_+	c #DDC07F",
":+	c #D0B16E",
"<+	c #DCBF7E",
"[+	c #E0C68A",
"}+	c #D3B573",
"|+	c #C9A85A",
"1+	c #C49E49",
"2+	c #D6B975",
"3+	c #C9A85E",
"4+	c #BA9541",
"5+	c #B5903F",
"6+	c #B38F3E",
"7+	c #AD8C43",
"8+	c #CCAB60",
"9+	c #CFB26C",
"0+	c #D7BE84",
"a+	c #DFC88F",
"b+	c #DBBF7E",
"c+	c #DDC282",
"d+	c #DCBF7F",
"e+	c #D9BC7B",
"f+	c #D6B86F",
"g+	c #DDC182",
"h+	c #DFC485",
"i+	c #C8A452",
"j+	c #E0C78A",
"k+	c #C8A558",
"l+	c #C19B45",
"m+	c #CDAE65",
"n+	c #DEC180",
"o+	c #CBAC66",
"p+	c #B4903D",
"q+	c #B28E3E",
"r+	c #AF8C3D",
"s+	c #B29047",
"t+	c #C09F56",
"u+	c #CDAE6B",
"v+	c #DDC58A",
"w+	c #DDC487",
"x+	c #DFC58A",
"y+	c #DABC7B",
"z+	c #DDC284",
"A+	c #D2B168",
"B+	c #DDC07E",
"C+	c #DDC283",
"D+	c #CCAC62",
"E+	c #DEC181",
"F+	c #C29F4E",
"G+	c #D7BB79",
"H+	c #DEC282",
"I+	c #C6A65D",
"J+	c #AC893B",
"K+	c #A9853A",
"L+	c #A38137",
"M+	c #C1A35E",
"N+	c #D3B97C",
"O+	c #DCC182",
"P+	c #DBBF81",
"Q+	c #D4B673",
"R+	c #D2B46E",
"S+	c #D0B068",
"T+	c #D3B672",
"U+	c #DEC383",
"V+	c #DABE7C",
"W+	c #CEAC5B",
"X+	c #D8BB7A",
"Y+	c #DEC382",
"Z+	c #C4A253",
"`+	c #E1C78A",
" @	c #E1C587",
".@	c #D1B370",
"+@	c #C9AA61",
"@@	c #E0C484",
"#@	c #C4A45E",
"$@	c #A9863B",
"%@	c #A7853A",
"&@	c #A28138",
"*@	c #A58643",
"=@	c #D7B96F",
"-@	c #C9AD6D",
";@	c #DABD78",
">@	c #D7B972",
",@	c #D5B76D",
"'@	c #D4B367",
")@	c #CDAC60",
"!@	c #D3B369",
"~@	c #CEAF67",
"{@	c #CCAD67",
"]@	c #CDAE67",
"^@	c #D0B26F",
"/@	c #BB9849",
"(@	c #B28E3D",
"_@	c #AC8839",
":@	c #B39146",
"<@	c #A68337",
"[@	c #A48238",
"}@	c #A28038",
"|@	c #9B7A34",
"1@	c #AA8C4A",
"2@	c #C9A95E",
"3@	c #D4B466",
"4@	c #C6A967",
"5@	c #D8BB76",
"6@	c #D5B66D",
"7@	c #D2B062",
"8@	c #D1B061",
"9@	c #CBA653",
"0@	c #CBAA5B",
"a@	c #DBC07E",
"b@	c #E1C687",
"c@	c #B79447",
"d@	c #B38E3D",
"e@	c #B08D3E",
"f@	c #AB893C",
"g@	c #A58339",
"h@	c #A28137",
"i@	c #9C7D36",
"j@	c #967633",
"k@	c #AE9251",
"l@	c #C7A85D",
"m@	c #C4A763",
"n@	c #DBBF7C",
"o@	c #D6B875",
"p@	c #D8B972",
"q@	c #D6B870",
"r@	c #D4B56B",
"s@	c #D0AE5E",
"t@	c #D0AD5B",
"u@	c #CFAC5A",
"v@	c #CAA54F",
"w@	c #C49E48",
"x@	c #BD9848",
"y@	c #CBAB62",
"z@	c #D5B874",
"A@	c #BF9D52",
"B@	c #B28C3A",
"C@	c #B49040",
"D@	c #B28E3F",
"E@	c #AC893C",
"F@	c #A7853B",
"G@	c #A58439",
"H@	c #A38239",
"I@	c #A27F37",
"J@	c #9C7A35",
"K@	c #987833",
"L@	c #927430",
"M@	c #B29555",
"N@	c #CEAF68",
"O@	c #CEB06C",
"P@	c #D1B36C",
"Q@	c #D3B56D",
"R@	c #D3B46A",
"S@	c #D1AE5E",
"T@	c #CFAC5B",
"U@	c #CAA651",
"V@	c #C9A551",
"W@	c #DFC486",
"X@	c #C09F54",
"Y@	c #D3B571",
"Z@	c #B18F42",
"`@	c #B08C3D",
" #	c #A9873B",
".#	c #A28139",
"+#	c #A18039",
"@#	c #9D7D36",
"##	c #977732",
"$#	c #907132",
"%#	c #977A3A",
"&#	c #B19350",
"*#	c #CEAE63",
"=#	c #D7B974",
"-#	c #D0B06A",
";#	c #D0B166",
">#	c #D1B165",
",#	c #D0AC5B",
"'#	c #CBA754",
")#	c #D9BB78",
"!#	c #DFC488",
"~#	c #D4B674",
"{#	c #C09E50",
"]#	c #B5903D",
"^#	c #B18D3D",
"/#	c #B49245",
"(#	c #D5B875",
"_#	c #E0C585",
":#	c #C8AA66",
"<#	c #9F7D33",
"[#	c #C4A96D",
"}#	c #AD8E4A",
"|#	c #987934",
"1#	c #8D6D2F",
"2#	c #8A6B2F",
"3#	c #8B6D2F",
"4#	c #937538",
"5#	c #B69955",
"6#	c #CAA95B",
"7#	c #D0B065",
"8#	c #D0AE5F",
"9#	c #DBBE7B",
"0#	c #DBBF7D",
"a#	c #E0C588",
"b#	c #D5B976",
"c#	c #BF9E50",
"d#	c #B6903D",
"e#	c #B69140",
"f#	c #B4903F",
"g#	c #AF8B3D",
"h#	c #AD8A3C",
"i#	c #A48135",
"j#	c #B9984F",
"k#	c #E2C88B",
"l#	c #DCBF7D",
"m#	c #D4B775",
"n#	c #8F712F",
"o#	c #8B6C2F",
"p#	c #886B2F",
"q#	c #8A6C30",
"r#	c #806327",
"s#	c #CDB06C",
"t#	c #BF9D51",
"u#	c #D2B162",
"v#	c #CDAB5D",
"w#	c #CBA857",
"x#	c #C9A44F",
"y#	c #D0B26B",
"z#	c #DBBE7C",
"A#	c #C3A052",
"B#	c #B59140",
"C#	c #B69241",
"D#	c #AE8B3D",
"E#	c #AA873B",
"F#	c #A6843A",
"G#	c #A6843B",
"H#	c #9B7B32",
"I#	c #BD9D58",
"J#	c #CBAD6A",
"K#	c #A88945",
"L#	c #8D6F30",
"M#	c #8A6C2E",
"N#	c #876A2D",
"O#	c #7B5F25",
"P#	c #B09456",
"Q#	c #C6A351",
"R#	c #CAA654",
"S#	c #C9A450",
"T#	c #C59F49",
"U#	c #E2C88D",
"V#	c #E0C584",
"W#	c #B89441",
"X#	c #AD893C",
"Y#	c #A38139",
"Z#	c #A07F38",
"`#	c #9A7B36",
" $	c #A88B4E",
".$	c #DEC17F",
"+$	c #C3A563",
"@$	c #8B6E2E",
"#$	c #886A2D",
"$$	c #83662D",
"%$	c #85672E",
"&$	c #93773B",
"*$	c #BC9E5B",
"=$	c #D3B469",
"-$	c #C2A156",
";$	c #C7A049",
">$	c #C49E4A",
",$	c #C29D48",
"'$	c #BE9841",
")$	c #D2B571",
"!$	c #B5913D",
"~$	c #B28F3E",
"{$	c #AD8A3D",
"]$	c #A5843A",
"^$	c #A17F38",
"/$	c #9D7C36",
"($	c #987935",
"_$	c #977835",
":$	c #927332",
"<$	c #A38444",
"[$	c #85672B",
"}$	c #82662C",
"|$	c #84662C",
"1$	c #775D25",
"2$	c #AD9053",
"3$	c #D1B36B",
"4$	c #C29F51",
"5$	c #C39E47",
"6$	c #B99541",
"7$	c #B79340",
"8$	c #B7933F",
"9$	c #B08C3B",
"0$	c #B38F3F",
"a$	c #A38138",
"b$	c #9F7F38",
"c$	c #9E7D37",
"d$	c #9B7B36",
"e$	c #957634",
"f$	c #967634",
"g$	c #917232",
"h$	c #80642A",
"i$	c #81642A",
"j$	c #7B6027",
"k$	c #92773B",
"l$	c #CFB374",
"m$	c #CEAC5E",
"n$	c #BB9745",
"o$	c #B08D3D",
"p$	c #A7843A",
"q$	c #9D7C37",
"r$	c #977735",
"s$	c #937433",
"t$	c #8F7131",
"u$	c #8A6D2F",
"v$	c #82662B",
"w$	c #7F642A",
"x$	c #795F26",
"y$	c #8F7439",
"z$	c #BB9D5C",
"A$	c #CDAD62",
"B$	c #B69346",
"C$	c #B28D3B",
"D$	c #A9873C",
"E$	c #A48239",
"F$	c #A07E37",
"G$	c #9C7C36",
"H$	c #947534",
"I$	c #8C6E30",
"J$	c #8A6C2F",
"K$	c #896B2E",
"L$	c #83672C",
"M$	c #7E632A",
"N$	c #7E642C",
"O$	c #8D723B",
"P$	c #BA9E5D",
"Q$	c #C9A95C",
"R$	c #B59349",
"S$	c #9F7E36",
"T$	c #987834",
"U$	c #977834",
"V$	c #947533",
"W$	c #927432",
"X$	c #8A6D2E",
"Y$	c #87692E",
"Z$	c #80652B",
"`$	c #7D6129",
" %	c #8B7039",
".%	c #876D34",
"+%	c #C3A662",
"@%	c #C8A85D",
"#%	c #BD9D56",
"$%	c #A4843E",
"%%	c #A5833A",
"&%	c #9C7B36",
"*%	c #967733",
"=%	c #907231",
"-%	c #907332",
";%	c #8C6E2F",
">%	c #8B6E30",
",%	c #83662C",
"'%	c #856B35",
")%	c #886E35",
"!%	c #CDB06D",
"~%	c #C7A65B",
"{%	c #A98B46",
"]%	c #A88A48",
"^%	c #977838",
"/%	c #886A2A",
"(%	c #896B2D",
"_%	c #86682D",
":%	c #84692F",
"<%	c #957A3F",
"[%	c #8C7136",
"}%	c #9B8044",
"|%	c #BEA262",
"1%	c #D0B16A",
"2%	c #B99A53",
"3%	c #B79953",
"4%	c #B79A58",
"5%	c #A18549",
"6%	c #9F8447",
"7%	c #A28647",
"8%	c #B99B58",
"9%	c #B79957",
"0%	c #CFB372",
"a%	c #D2B470",
"                              . +                               ",
"                      @ # $ % & * = - ; >                       ",
"                , ' ) ! ~ { ] ^ / ( _ : < [ } |                 ",
"              1 2 3 4 5 5 6 7 8 7 9 0 a b c d e f               ",
"            g h i j k l m n o p q r s t u v w x y z             ",
"          A B C D E F G H I J K L M b N O P Q R S T U           ",
"        V W X Y Z `  ...+.@.#.$.%.&.*.=.-.;.>.,.'.,.).!.        ",
"      ~.{.Z ].^./.(._.:.l <.[.}.|.1.2.3.4.5.6.7.8.9.0.a.b.      ",
"    c.d.e.G G f.g.h.:.i.j.k.# l.|.a m.n.o.p.q.r.s.t.u.v.w.x.    ",
"    y.z.A.B.k l C.D.&.E.F.G.H.I.J.K.L.j.M.N.N.O.P.Q.R.S.T.U.    ",
"    V.W.8 X.Y.Z.`. +J .+k.++@+#+m.$+S <.%+&+*+=+-+;+>+,+'+)+    ",
"  !+~+{+]+{+p ^+/+(+&._+:+l.:.b <+&.[+}+[.|+1+2+}.3+4+5+6+7+8+  ",
"  9+0+a+a+7 @.1.b+c+d+e+f+g+|.[.1.[.h+i+j+k+l+m+n+o+p+q+r+s+t+  ",
"  u+v+0 w+x+1.y+1.<+z+<+A+B+l.l.<+|.C+D+E+F+G+[+c+H+I+J+K+L+M+  ",
"  N+_ O+P+1.Q+R+S+T+U+1.V+W+X+Y+2.a Z+&.V+`+ @.@+@@@#@$@%@&@*@  ",
"=@-@`+b+b+b+;@>@,@'@)@t |.l.!@~@{@]@%._+F.^@/@(@_@:@<@[@}@|@1@2@",
"3@4@Y+I.I.5@3.6@, 7@8@9@0@b+1.[.a@e+b@y.c@d@e@r+f@g@h@&@i@j@k@l@",
"  m@n@o@p@q@r@c.s@t@u@v@w@x@y@F.j.z@A@B@C@D@E@F@G@H@I@J@K@L@M@  ",
"  N@O@P@Q@R@| S@T@,.U@V@Q+W@%+X@{@@@H+Y@Z@`@ #.#+#@#j@##$#%#&#  ",
"  *#=#-#;#>#,#O+b.'#)#!#_+~#{#]#^#/#(#|._#:#<#[#}#|#1#2#3#4#5#  ",
"  6#x } 7#8#6@9#0#a#k.b#c#d#e#f#g#h#i#j#<+1.k#l#m#n#o#p#q#r#s#  ",
"    t#u#v#w#x#y#z#t A#d#B#B#C#D#D#E#F#G#H#I#F.J#K#L#M#N#O#P#    ",
"    *#Q#R#S#r.T#U#V#]#W#q+g#X#E@g@Y#Z#Z#`# $.$+$@$#$$$%$&$*$    ",
"    =$-$;$>$,$'$)$~#!$~$g#{$$@]$H@^$/$($_$:$o@<$[$}$|$1$2$3$    ",
"      L.4$5$6$7$8$9$r+0$E@F#H@a$b$c$d$e$f$g$N##$h$i$j$k$l$      ",
"        m$n$8$o$`@{$E@E@p$.#.#q$`#($r$s$t$3#u$v$w$x$y$z$        ",
"          A$B$C${$$@D$E$F$/$G$d$H$:$g$I$J$K$L$M$N$O$P$          ",
"            Q$R$i#F#a$Z#S$T$U$V$W$g$X$N#Y$Z$`$ %.%+%            ",
"              @%#%$%%%F$&%*%=%-%;%>%,%}$Z$'%)%y$!%              ",
"                m+~%{%q$]%^%/%(%_%h$:%<%[%}%|%)$                ",
"                      1%2%3%4%5%6%7%8%9%0%                      ",
"                                a%                              "};
