/* XPM */
static char * coin16_xpm[] = {
"16 16 16 1",
" 	c None",
".	c #DCBF7E",
"+	c #D1B36E",
"@	c #E2CB96",
"#	c #E0C68A",
"$	c #D0B164",
"%	c #D9BA73",
"&	c #CDAA58",
"*	c #C6A04C",
"=	c #B6913E",
"-	c #A4833C",
";	c #AC8939",
">	c #C1A35B",
",	c #B19652",
"'	c #967734",
")	c #85682C",
"      .+++      ",
"    +@@@@#++    ",
"   @@@@##.$$$   ",
"  @@@@##.%+&&*  ",
" .@@@@...%$**** ",
" @@@..+.+.+*+=- ",
"+##...%..$+$#=;>",
"+#.%+.%%+.#>>--,",
">..$&&>..>=;;-',",
"++$$&$.>>.>--)',",
" $$+.$===->#-)) ",
" >**#=;;--'+)), ",
"  *==;--'''))'  ",
"   =;--'')))'   ",
"    ,-')))),    ",
"      >>,,      "};
