/* XPM */
static char * coin64_xpm[] = {
"64 64 233 2",
"  	c None",
". 	c #D8B972",
"+ 	c #D7B871",
"@ 	c #D8B86B",
"# 	c #D7B76A",
"$ 	c #D9BA73",
"% 	c #D5B568",
"& 	c #CFA750",
"* 	c #BEA054",
"= 	c #C7AA64",
"- 	c #D1B474",
"; 	c #C9B579",
"> 	c #CFB581",
", 	c #D2B77C",
"' 	c #CCB176",
") 	c #CCAF6F",
"! 	c #CAAC66",
"~ 	c #CBAB59",
"{ 	c #DABD7C",
"] 	c #C2A250",
"^ 	c #D6BB80",
"/ 	c #DECEA2",
"( 	c #DDC38E",
"_ 	c #EDD4A4",
": 	c #A9873E",
"< 	c #D3B675",
"[ 	c #C2A76D",
"} 	c #E6CB95",
"| 	c #A6843C",
"1 	c #EDD39D",
"2 	c #C1A565",
"3 	c #C9AD6D",
"4 	c #C4A559",
"5 	c #D2B25F",
"6 	c #C7A755",
"7 	c #F0E0B3",
"8 	c #B19550",
"9 	c #DDCB9A",
"0 	c #D3BA85",
"a 	c #E4D2A0",
"b 	c #ECD3A3",
"c 	c #E1D09E",
"d 	c #EBD09A",
"e 	c #DFCC94",
"f 	c #E6D29A",
"g 	c #DDCA92",
"h 	c #DDC186",
"i 	c #E5C98D",
"j 	c #DBBE7D",
"k 	c #BB9E59",
"l 	c #E4C88C",
"m 	c #CDAF69",
"n 	c #CEAD5B",
"o 	c #CAA454",
"p 	c #E7CE9E",
"q 	c #E9D0A0",
"r 	c #AA8947",
"s 	c #E2CE96",
"t 	c #E3CF97",
"u 	c #DEC696",
"v 	c #DFCA8C",
"w 	c #DFC388",
"x 	c #DDC88A",
"y 	c #DDC07F",
"z 	c #B3914F",
"A 	c #D2B366",
"B 	c #C3A660",
"C 	c #BCA161",
"D 	c #E6D6AA",
"E 	c #EADAAE",
"F 	c #E3C893",
"G 	c #E1C382",
"H 	c #DCBF7E",
"I 	c #D5B878",
"J 	c #C6A258",
"K 	c #C6AC72",
"L 	c #EAD8A6",
"M 	c #E9CE98",
"N 	c #DBBF84",
"O 	c #DBC481",
"P 	c #D9BC7B",
"Q 	c #D5B770",
"R 	c #CCAE61",
"S 	c #D1B265",
"T 	c #EFD8AE",
"U 	c #CAAC5F",
"V 	c #C5A969",
"W 	c #E5D199",
"X 	c #D3B56E",
"Y 	c #D4B66F",
"Z 	c #D3AE63",
"` 	c #B18F46",
" .	c #E1CAA0",
"..	c #E2C68B",
"+.	c #D2B46D",
"@.	c #D1B36C",
"#.	c #C6A75B",
"$.	c #F1D8A7",
"%.	c #E7D5A3",
"&.	c #E0C489",
"*.	c #D1B15E",
"=.	c #CEAF63",
"-.	c #D0AA59",
";.	c #C09C52",
">.	c #D3AD5C",
",.	c #BBA168",
"'.	c #DCBD76",
").	c #D7BA79",
"!.	c #D2AC5B",
"~.	c #BB974E",
"{.	c #DABC74",
"].	c #C8A74E",
"^.	c #D0B164",
"/.	c #B2904D",
"(.	c #DEC180",
"_.	c #CAA34C",
":.	c #BA9646",
"<.	c #C9A24B",
"[.	c #C6A150",
"}.	c #C29B45",
"|.	c #CBA44E",
"1.	c #C69F48",
"2.	c #C49E47",
"3.	c #C29D4D",
"4.	c #C7A049",
"5.	c #AB8941",
"6.	c #BE9842",
"7.	c #B89444",
"8.	c #CFB16B",
"9.	c #E3C584",
"0.	c #CBAA51",
"a.	c #B59B5B",
"b.	c #B18E3E",
"c.	c #B59142",
"d.	c #BC9640",
"e.	c #D3B467",
"f.	c #CCAC5A",
"g.	c #BF9A4A",
"h.	c #B6913B",
"i.	c #A78435",
"j.	c #E8D59C",
"k.	c #E2C483",
"l.	c #C09A43",
"m.	c #B79343",
"n.	c #B49853",
"o.	c #B38E38",
"p.	c #AF8D44",
"q.	c #A38239",
"r.	c #CEB271",
"s.	c #B8933D",
"t.	c #B28F3F",
"u.	c #AF8C3C",
"v.	c #AD8A3A",
"w.	c #DCBC6E",
"x.	c #AE8B3B",
"y.	c #AC8939",
"z.	c #AA8737",
"A.	c #AB8838",
"B.	c #A18037",
"C.	c #957534",
"D.	c #DFC079",
"E.	c #C1A357",
"F.	c #997830",
"G.	c #BA9436",
"H.	c #B7944A",
"I.	c #A88636",
"J.	c #9C7B33",
"K.	c #A28843",
"L.	c #BD9739",
"M.	c #BB9E52",
"N.	c #D4B460",
"O.	c #A48233",
"P.	c #9E7D35",
"Q.	c #987F3B",
"R.	c #907130",
"S.	c #B89C57",
"T.	c #997A38",
"U.	c #967735",
"V.	c #A6864A",
"W.	c #8D6E26",
"X.	c #A17F30",
"Y.	c #AF9455",
"Z.	c #B99E5E",
"`.	c #BFA35D",
" +	c #977836",
".+	c #8E6F2E",
"++	c #876928",
"@+	c #9C7C3A",
"#+	c #95752D",
"$+	c #8C6F33",
"%+	c #A98F51",
"&+	c #9E7E3C",
"*+	c #C69E41",
"=+	c #8B6D2C",
"-+	c #86692E",
";+	c #836C2F",
">+	c #896C31",
",+	c #E0C072",
"'+	c #B19449",
")+	c #E9CB89",
"!+	c #84672D",
"~+	c #AC935A",
"{+	c #74591E",
"]+	c #806429",
"^+	c #8C6E2D",
"/+	c #7D6127",
"(+	c #A07F36",
"_+	c #937432",
":+	c #8F702F",
"<+	c #7F6328",
"[+	c #9A7A32",
"}+	c #83662B",
"|+	c #7E672B",
"1+	c #A28240",
"2+	c #846725",
"3+	c #7F642F",
"4+	c #795E29",
"5+	c #866A35",
"6+	c #B49039",
"7+	c #AD924D",
"8+	c #BA953E",
"9+	c #9B8452",
"0+	c #9A7B3F",
"a+	c #A88F57",
"b+	c #947C3E",
"c+	c #917338",
"d+	c #A08648",
"e+	c #7A5F24",
"f+	c #95773B",
"g+	c #A78644",
"h+	c #E1C27B",
"i+	c #988149",
"j+	c #775C21",
"                                                                                                                                ",
"                                                      . + . @ # # . @ # .                                                       ",
"                                              $ % & * = - ; > ; , , ' ) ! * ~ % %                                               ",
"                                        { @ ] ) ^ / ( _ : _ < [ } | 1 < 2 1 ' - 3 4 5 +                                         ",
"                                    . 6 3 > 7 8 9 , 0 a b c d c e f g h i j k l m , ! 4 n %                                     ",
"                                . o ) p q r _ p p p s t s } c } u p } v w w x h , y , z < ! n A                                 ",
"                            w % B / 0 C D E c t s c p } e F 9 } g g F x x ^ G H H H y H I z < J 5 %                             ",
"                          $ 6 > x K L L q M } } } } e g F g } s F F N N H H O { P $ $ $ $ Q P 3 ! R S                           ",
"                        % 4 c ( p D T c c s 9 e e } s g F v x v ( x h N { I j $ I Q + Q Q # % J + < U S                         ",
"                      % B E V u a b p p p c W } } s F F F i F F x N x O P P . $ + Q X Q Y X + X Z ` Z o %                       ",
"                    5 [ ( [  .D a a W a p M s e g t s s F ..x l x N N y j P I Y + % % % +.@.S A S 5 S = #.A                     ",
"                  % [ $.q E %.b a a a c c c c } } e F ..e g ..&.h O O O { P $ + X +.+.S A *.=.Z U Z -.;.>.o %                   ",
"                A B g ,.b  .a  .L p q M c p c e } v v ....&.a q M ..{ '.'.).. Y + % @.Z Z >.~ !.6 U !.n @.~.R +.                ",
"              { J p T L q _ q %.q a a a p s } i v F w %.W t H '.j y F x x {.Y Y + X % A n ~ ~ -.-.-.~ -.-.].o ^.I               ",
"            x &  ./. .%.c D p  .a a c M g v F F v } _ { y (.O O y (.y j O y + % % % A =.-.-.6 o o o o _.o ].J :.^.4             ",
"            @ 0 t D W c s c / a q p } e } } v x M v O y (.y j H (.y h y y h y X @.^.Z -.~ ].o ].].6 ].] <.[.<.}.-.@             ",
"          j k F [ / p p } M c c t s } s F } l a F H (.y (.(.(.(.h (.y (.O (.(.(.Z ~ Z o -.|.o o 1.}.2.3.4.] <.#.5.~ #.          ",
"          |.9 a b M e s s t } M c } e i v x F s y H H y ! I (.y O y w - ! w h G j ~ ].6 6 ] ].2.[.[.3.2.3.}.2.[.6.7.@           ",
"        + 3 = > c M c c c c c } e l F ..h x q '.G (.8.= 9.m @.H y G 4 S # 6 H (.G =.0.<.& [.1.1.2.2.2.}.[.}.}.}.3.a.6 U         ",
"        ] u T s s 9 g } } } F v F g x x w G v O H G ! I Q + . (.y m Y Z A S $ h h j o 6 6 [.4.] 1.3.}.3.6.}.6.6.}.b.c.Z         ",
"      '.! B 0 9 s p 9 e 9 v T M w H h O h b I y j (.R . % Y H h y 8.% 5 Z n (.y h (.] o <.].}.2.}.}.}.}.6.d.d.d.d.c.3 6 U       ",
"      5 > q c } F F F p } T j O (.8.x w (.g y N (.(.$ e.Z S p O y (.+.!.f.H g H (.(.R ].[.3.2.m &.N 6.g.:.:.7.h.c.h.i.~.Z       ",
"      ;.j., e 9 e e g e s i j (.(.! O O y l O j H H O ..i s + j j j H l s k.H H y (.! <.1.3.1.s O O @.l.d.d.m.h.c.m.c.n.#       ",
"    . ! ' u } g F F F } ..x y h y ! l y H &.{ y B ! j O y H (.y y y H y H H 8.= I h m 1.2.4.m H H N ..o.d.m.h.b.b.b.p.q.J 4     ",
"    A 0 l g i v g g x g b M (.y y I H H j 9.H r.'.. h y (.y (.H (.N H y h ..o ].k.h ) 3.1.] ] G (.O P o.s.c.t.b.u.u.v.| z =.    ",
"    & ; C F F F ..x F p P O y y y H h w I x y y #.P y y y h O H H H H y (.(.! -.&.(.U <.2.d.7.x (.y r.- t.s.h.o.u.b.| 2 q.w.    ",
"    g._ s x x x N x x g j (.y I G O y H y w H y m % h G (.H h y H H (.h (.G 3.I '.y [.3.}.y } { (.x O y r.u.x.y.z.A.| B.C.%     ",
"  $ = ! , N { j h h N h (.y H < Q H y y H O y y G o % (.h y y h D.H y O (.- d.t j H h.O t { G (.y H H G O u.5.| | | i.q.V = E.  ",
"  + V ( x h N O y G G P I h $ ! m U G y j y y H O A ].% h H y H h (.y N ).l.H { N I p H (.h (.G m G O G ..t.x.z.: : | q.F.k J   ",
"  # - ^ F O G h ^ ^ O G < ! ) {.% . #.) G y y y j y $ 6 #.H (.(.O N k.! G.)...y O O O (.h O ) H.A.^.N y - i.| : | I.B.J.K./.4   ",
"  e.8.8 l x O O O N P O '.D.P . + X Z % J < O y y (.y y % L.J 4 #.M.o.4 g y H H y H y k.X 7.b.b.c.A.n.M.i.: i.q.q.q.B.C.k 8 #.  ",
"  . ) l h h j P y $ y . I . Q X % # % A N.n J { y y y H O F j P $ j g v { y (.(.y G 8.t.c.7.h.t.y.y.v.v.: i.q.O.P.P.Q.J.R./.4   ",
"  % = S.x y $ I ).{ $ D.+ $ + + % % S A ^.% !.Z #.G y j H y y H H { G y (.N y G ! H.b.h.h.u.b.b.u.: | i.B.P.P.q.J.J.T.U.; V.4   ",
"  S ) { y I P '.{.$ P X Y {.% % ^.^.>.Z !.n o 4.|.6.U G y y y y y y y 8.O O X ` c.u.c.b.b.5.5.v.: y.z.q.| | B.q.q.J.J.C.W.n.4   ",
"  # ! H G $ I Q I . . # +.Y +.Z Z *.n n !.0.~ ].].}.6.m.X (.y y y y I J g.~.h.h.t.t.c.t.x.x.5.| 5.| | X.B.| P.P.P.T.F.C.V.Y.4   ",
"  +.= 8 O I {.< + + + Y % % % % >.-.f.Z n -.|.4.}.3.h.I #.g.{ y y (.O O I ] b.c.m.b.b.u.y.: i.| q.B.q.q.P.J.J.F.C.F.U.R.8 Z.`.  ",
"  + J y O ).X X Y Y % Y A *.n ^.S !.n -.~ 6 <.4.G.P f '.H O g.;.H y y (.j h r.c.y.b.b.b.A.: i.B.q.P.q.P. + +C. +R.C.R..+++! k   ",
"    g.< k @.8.S 8.+.8.S Z Z Z >.-.0.~ ~ & <.4.P p $ j j j { ).7.x.#.w y y y O k.! A.x.5.5.| q.P.B.B.J.@+U.#+C.#+$+.+R.%+&++     ",
"    ~ m {.@.m 8.S S S A % n ~ O A & ].].*+j c $ H j j N + M.h.:.c.h.b.- G H O y H &.J i.| B.J.V.F.&+F.J..+.+=+-+;+>+.+=+>+,+    ",
"    5 ! r.# @.8.m ^.^.^.n >.%.+ N ~ *+P a { j (.y H < ] c.6.m.t.5.u.u.z.'+$ H y y y O (.'+F.9 )+F P.Q.C.>+.+>+=+R.++!+~+V.U     ",
"    + 4 8 + Y 8.Z ^.Z Z n (.{ y H I M j y y (.(.I g.b.d.d.h.h.s.u.b.b.z.5.P.k G y H y G h F P O (.k C.C.-+.+-+-+>+-+-+K.Z.B     ",
"      ] @ % A Z S Z R f.n $ { (.H G j y (.G I M.h.:.c.c.t.c.` u.5.5.y.: | v.i.X.B w H O O O x (.N J U..+.+-+>+-+>+.+-+{+D.      ",
"      % * p.A =.U -.f.-.-.<.y N j y (.(.I * h.c.s.h.d.c.d.h.t.u.u.5.x.z.: | | O.P.| ! (.j j (.O G q.R.R.=+=+++++!+]+r.V.^.      ",
"      + J Z n -.Z Z o o 6 _.2.#.. h (.B 7.}.m.7.m.c.c.u.b.` u.z.u.x.: : | | | q.| J.@+` G (.+.@+C.^+.+>+>+-+;+-+!+/+/+V V       ",
"        5 m z -.6 o 6 <.o <.<.1.t h (.D.t.d.d.h.A.v.v.y.v.5.: b.| i.| P.B.q.q.P.@+J. +,.H (.9.(+_+:+.+>+-+!+-+!+<+- ;+,+        ",
"        A o 0.].|.].<.o ].] ] 6 G O y x c.:.m.m.7.m.t.b.5.v.y.| q.| q.q.B.P.&+(+[+U.U.,.y h O Q.-+=+-+!+}+!+}+}+|+<+2 J         ",
"          A J 2 o <.3.3.}.}.2.}.y y H G o.d.c.c.b.b.c.u.: 5.A.| | | q.B.1+P.[+Q. +U.R.: k.h 9.=+!+++2+}+}+}+3+4+' 5+D.          ",
"          % 6 ] *+3.1.2.3.}.6.:.g.m +.7.d.c.6+b.b.| i.: i.i.q.| q.P.B.&+J. +Q.C. +C.R.$+7+8.1+-+2+}+3+}+!+3+|+<+W.) B           ",
"            5 ] y 8+1.2.6.:.8+d.7.c.t.b.: x.t.u.o.5.i.5.| q.q.P.q.B.P.P.P.F.F.C.J.U.U..+.+++=+-+]+!+<+}+}+3+9+0+a+'.            ",
"            - =.b.2.}.}.:.h.t.c.d.h.b.u.b.t.h.t.5.z.| q.B.q.X.q.[+&+P.@+J.@+C.F.C._+R.:+$+;+-+=+]+]+]+<+/+|+++b+i               ",
"              ~ U f.* *+s.s.6+x.c.u.u.v.v.b.u.v.5.q.q.q.B.1+q.Q.J.@+F.U. + +_+C._+R.R.=+.+.+;+]+]+3+3+|+4+K 4+X )               ",
"                n 6 m.:.:.b.x.b.y.u.5.: | : y.: q.i.P.B.q.P.J.P.P.F.Q.T.F.C.R.$+^+c+>+>+>+-+}+]+]+/+/+{+4+2+V Z                 ",
"                  ^.6 ) i.m.t.u.5.u.A.5.i.: | i.q.B.&+P.B.@+&+ +Q.C.F.C.U.c+_+^+=+=+++=+;+}+3+3+]+|+4+[ |+[ !                   ",
"                    Z ] 6+! o.b.b.5.: i.: A.i.q.q.@+J.T.@+[+J. +R.R.c+;+:+^+=+$+>+-+>+-+}+}+<+/+]+3+5+4+V =.                    ",
"                      ^.o ` A.i.v.i.| | q.q.P.P.P.P.F.C. +T.F.C.C.R.C.C.^+;+>+=+>+-+!+]+|+]+3+4+/+d+^+K m                       ",
"                        ! % y.P B.: i.| q.P.q.q.B.P.@+[+C.F._+C.U.R.R.^+>+=+++}+-+!+3+/+4+3+/+~+b+3+@.m                         ",
"                          ! % H.O.- X.q.| &+P.q.q.J.Q.F.R._+_+_+^+.+$+=+!+!+!+}+!+}+]+/+e+9+;+{+~+D.B                           ",
"                              U =.: B.a.5.B.q.P. +F.R._+c+c+$+^+^+>+$+;+!+|+}+]+3+|+3+9+4+b+f+) @.~+                            ",
"                                4 @ J 5.F.g+Z.P.C. +_+^+=+_+^+;+:+>+-+!+!+|+!+|+e+a+4+K.>+,.h+V                                 ",
"                                    #.w.`.8 F.#+O #+Q.Q.^+2+c+++5+!+<+]+i+/+a+Q.3+U.i+2 h+=                                     ",
"                                        #.n $ ;.V.c+g+ +=+Q !+Z.P.d+Y.j+`.4+5+d+S.'.% 3                                         ",
"                                              ) =.,+$ 4 Z.Y.%+V.a+V.z a.C + w.8.'                                               ",
"                                                      ) m ) @.m r.r.! ) 3                                                       ",
"                                                                                                                                "};
