/* XPM */
static char * coin32_xpm[] = {
"32 32 16 1",
" 	c None",
".	c #D1B165",
"+	c #D1B36E",
"@	c #E1C68A",
"#	c #C0A25B",
"$	c #E3CC97",
"%	c #DDC07E",
"&	c #CDAB59",
"*	c #C59F4B",
"=	c #B38F3F",
"-	c #A98637",
";	c #A18039",
">	c #987830",
",	c #AE914F",
"'	c #907232",
")	c #83662B",
"               ..               ",
"           ++@+++@++.           ",
"        .+#$$$$$$@@%+#+.        ",
"       #@$$$$$$$$@@@%%++.       ",
"      +$$$$$$$$@@%++++..+&      ",
"     +$$$$$$$$@@@@%%+.+.&#&     ",
"    +$$$$$$@@$$@@@++..&&&&..    ",
"   +$$$$$$$$$%%%%%%%+&&&*&*=.   ",
"  .@$$$$$$@$@%+@%@%%.&&******.  ",
"  +@$$$$$@%@%+++@.&%%*******=&  ",
"  @$$$$$%@@%%+.@%..@@&**+==*=#  ",
" #@$$$$%+%@%+%@%%%@+%&*%%.===-. ",
" +%$@@@%%%@+%@%%@%@*$#*#%.====# ",
" #@%@$%%@%@%.+@@%%%+%*%@%@.;;;# ",
" @@%%%++++@%@&+%@@*%%@@+.@#=;;; ",
"+#@@%@%%..#%%%+##.@%@+==;=-;->,.",
".+%+++....&*.%%@%@@+====;-;;;',#",
" #%%%%+%&&&***#%@+#===-;-;->>', ",
" +#....&&&&*+@@##%%+==;;;;'''', ",
" .%+..&%.&%@@+*===+@@+;+,'''''# ",
" &++..%%%%%+#=====;#%%@%+')'))+ ",
"  *.&**.%%#====,-;-->#@#,'')),  ",
"  .&&*&*@%=*==-=;;>;>,%#')))'#  ",
"  .#****+%===--;-;;'''+,)))),+  ",
"   .**====-=--;;;;>'''))))))+   ",
"    .====-=--;;;;';>')'))))#    ",
"     &===;;;;;>'''''')))))#     ",
"      .=;--;;>;>'''))))))+      ",
"       &#;;;;''''))))))'@       ",
"        #.,>,''')))'),#+        ",
"           +#,,,;,,#@           ",
"                +               "};
